<?xml version="1.0" encoding="utf-8"?>
<!-- Generator: Adobe Illustrator 26.0.2, SVG Export Plug-In . SVG Version: 6.00 Build 0)  -->
<svg version="1.1" id="Layer_1" xmlns="http://www.w3.org/2000/svg" xmlns:xlink="http://www.w3.org/1999/xlink" 
	viewBox="0 0 280 90" xml:space="preserve">
	<g>
		<path d="M83.11,34.17c0.85-0.23,1.69-0.5,2.5-0.82c1.96-0.4,3.8-1.18,5.37-2.55c0.66-0.58,1.26-1.31,1.64-2.11
		c0.26-0.42,0.44-0.87,0.49-1.37c0.12-1.24-0.64-2.19-1.66-2.71c0,0-0.01-0.01-0.01-0.01c-0.45-0.23-0.95-0.38-1.46-0.42
		c-2.01-0.17-3.86,0.96-5.3,2.26c-0.93,0.84-1.79,1.73-2.57,2.67c-0.12,0.13-0.23,0.27-0.34,0.41c-0.16,0.21-0.33,0.41-0.48,0.62
		c0,0,0,0,0,0c-2.57,0.05-5.1-0.32-7.35-1.62c0.03-0.17,0.01-0.35-0.03-0.52c-0.02-0.09-0.05-0.18-0.09-0.27
		c-0.01-0.01-0.01-0.03-0.02-0.04c-0.15-0.34-0.42-0.63-0.87-0.73c-2.47-0.55-4.52,1.99-4.05,4.33c0.61,3.04,3.96,4.05,6.64,3.95
		c1.02-0.04,2.08-0.11,3.16-0.24c-0.18,0.52-0.34,1.05-0.47,1.6c-0.11,0.34-0.22,0.68-0.32,1.01c-1.09,3.54-1.85,7.38-0.88,11.04
		c0.84,3.14,2.83,5.87,5.85,7.2c1.05,0.47,1.84-0.68,1.54-1.61c-1.42-4.42-2.1-9.1-1.94-13.74C82.52,38.52,82.63,36.27,83.11,34.17z
		 M85.79,28.96c1.09-0.77,2.34-1.19,3.77-1.1c-0.41,0.46-0.86,0.88-1.34,1.25c-1.07,0.4-2.26,0.61-3.22,0.73
		C85.24,29.53,85.51,29.24,85.79,28.96z" />
		<path d="M132.86,49.38c-0.43-3.69-0.98-7.36-1.65-11.01c-0.44-2.4-0.94-4.78-1.49-7.15c-0.34-1.46-0.55-4.05-2.14-4.57
		c-1.57-0.51-2.93,1.86-3.8,2.96c-1.23,1.55-2.39,3.17-3.46,4.86c-1.11,1.74-2.22,3.59-3.18,5.53c-0.33-0.09-0.67-0.15-1-0.24
		c-0.58-1.04-2.3-0.42-1.94,0.94c0.27,1.06,1.51,2.75,2.18,3.55c-2.47,7.42,0.21,8.66,1.19,8.54c1.47-0.18,2.03-4.44,3.05-6.66
		c1.15,0.16,2.34,0.13,3.49-0.02c1.16-0.15,2.31-0.37,3.44-0.67c0.28-0.07,0.61-0.16,0.94-0.27c0.25,1.26,0.51,2.53,0.81,3.77
		c0.38,1.58,0.95,3.11,2.08,4.22c0.52,0.51,1.15,0.41,1.58-0.1c0,0,0,0,0-0.01c0.04-0.04,0.08-0.09,0.11-0.14
		c0.56-0.81,0.67-1.78,0.45-2.75C133.43,49.72,133.17,49.48,132.86,49.38z M127.51,41.87c-1.16-0.11-2.33-0.25-3.49-0.43
		c-0.39-0.06-0.78-0.15-1.17-0.21c0.06-0.13,0.12-0.25,0.17-0.38c0.89-1.95,1.79-3.91,2.68-5.86c0.2-0.44,0.4-0.91,0.6-1.38
		c0.46,2.77,0.98,5.53,1.53,8.29C127.73,41.89,127.62,41.88,127.51,41.87z" />
		<path d="M148.83,24.7c-0.86-0.73-1.79,0.68-1.35,1.74c2.44,5.83,2.95,12.67,1.56,18.99c-0.45-0.58-0.9-1.15-1.33-1.74
		c-0.23-0.31-0.45-0.64-0.66-0.96c-0.76-1.64-1.34-3.49-2.03-5.13c-0.66-1.57-1.45-3.14-2.5-4.33c-0.55-0.63-1.39-1.44-2.24-1.79
		c-0.45-0.4-0.94-0.66-1.46-0.59c-1.45,0.19-1.75,2.22-1.91,3.74c-0.16,1.48-0.26,2.97-0.31,4.46c-0.27,1.52-0.5,3.06-0.66,4.61
		c-0.37,3.74,0.6,8.34,4.04,8.66c1.04,0.09,1.21-1.58,0.55-2.26c-0.02-0.23-0.04-0.46-0.06-0.69c0.55-2.56,0.83-5.2,0.84-7.85
		c1.14,1.74,2.34,3.41,3.64,4.96c1.06,1.27,2.16,2.46,3.3,3.59c1.06,1.05,2.25,2.39,3.67,2.35c2.88-0.08,2.78-5.24,2.89-7.82
		c0.17-3.76,0.03-7.65-0.94-11.23C152.92,29.88,151.26,26.77,148.83,24.7z" />
		<path d="M226.33,29.85c-0.07-0.13-0.17-0.24-0.29-0.34c-0.29-0.48-0.56-0.86-0.87-1.21c-0.6-0.67-1.36-1.31-2.33-1.93
		c-0.9-0.86-1.93-1.57-3.07-2.11c-1.05-0.5-2.22-0.85-3.56-1.08c-0.08-0.01-0.17-0.02-0.25-0.02c-0.68,0-1.3,0.48-1.43,1.11
		c-0.1,0.47,0.11,0.9,0.52,1.13c0.13,0.15,0.31,0.28,0.53,0.36l0.48,0.19c0.44,0.28,0.84,0.57,1.17,0.84
		c0.62,0.57,1.22,1.19,1.76,1.82c2.48,3.33,2.64,7.97,0.43,12.73c-1.28,2.76-2.98,5.43-6.71,6.27c-0.83,0.19-1.69,0.28-2.56,0.28
		c-1.32,0-2.63-0.22-3.79-0.64c0.43-0.41,0.83-0.8,1.2-1.17c1.28-1.13,2.45-2.36,3.47-3.65c0.17-0.21,0.26-0.45,0.29-0.71
		c4.1-5.77,2.14-8.48,1.78-8.9c-0.89-1.34-2.4-2.14-4.06-2.14c-0.22,0-0.45,0.01-0.68,0.04c-0.2-0.03-0.4-0.04-0.61-0.04
		c-2.06,0-4.4,1.28-5.78,2.38c-1.72,1.37-2.96,3.15-3.64,5.22c-1.02,2.12-1.31,4.42-0.8,6.48c0.14,0.57,0.35,1.15,0.64,1.71
		c-1,0.2-1.97,0.31-2.82,0.31c-0.77,0-1.46-0.08-2.05-0.25c-0.14-0.04-0.26-0.08-0.38-0.14c-1.38-1.71-1.33-4.19-1.08-6.63
		c0.37-3.51,2.85-6.36,4.48-8.24c0.23-0.26,0.44-0.51,0.63-0.73c0.11-0.05,0.21-0.13,0.29-0.21l0.99-1.02
		c0.43-0.09,0.81-0.36,1.05-0.75c0.23-0.38,0.28-0.82,0.15-1.2c-0.08-0.68-0.75-1.2-1.57-1.2c-0.13,0-0.27,0.01-0.4,0.04
		c-0.15,0.03-0.31,0.09-0.49,0.17c-1.45,0.2-2.58,1.31-3.48,2.21c-1.59,1.57-2.94,3.06-4.13,4.57c-2.77,3.52-4.11,6.68-4.08,9.66
		c0.02,3.32,1.75,6.32,4.51,7.83c1.33,0.73,2.87,1.1,4.56,1.1c1.99,0,4.19-0.51,6.36-1.49c0.07-0.03,0.13-0.06,0.2-0.09
		c1.33,1.2,2.98,1.99,4.91,2.35c0.81,0.15,1.69,0.23,2.6,0.23c0.45,0,0.9-0.02,1.28-0.05c0.23,0.01,0.46,0.02,0.69,0.02
		c5.57,0,10.18-3.09,12.44-4.94C229.98,42.17,228.28,33.25,226.33,29.85z M206.15,40.93c-0.66,1.05-1.61,2.39-3.08,3.35
		c-0.06,0.03-0.12,0.06-0.18,0.09c-1.19-1.64-1.5-3.75-0.84-5.86c0.43-1.36,1.4-2.76,2.52-3.7c0.6-0.35,1.24-0.62,1.83-0.79l0.06,0
		c0.62,0,1.11,0.21,1.46,0.63c0.37,0.44,0.54,1.1,0.44,1.67c-0.26,1.47-1.27,3.07-2.15,4.49L206.15,40.93z" />
		<path d="M178.37,30.77c-3.08-2.47-7.11-3.95-11.11-4.33c0.17-0.73,0.21-1.47-0.03-2.21c-0.05-0.15-0.22-0.3-0.38-0.31
		c-0.17-0.01-0.33,0-0.5,0.01c-0.12-0.03-0.24-0.02-0.35,0.04c-1.27,0.2-2.4,1.02-2.9,2.27c-0.03,0.08-0.04,0.15-0.04,0.22
		c-2.43,0.28-4.79,1.08-6.8,2.49c-1.23,0.63-1.81,1.25-1.76,1.85c0.06,0.58,0.63,0.83,1.72,0.75c2.45-0.35,4.14-0.55,5.08-0.59
		c-0.46,2.78-0.39,7.39,0.23,13.82c0.13,1.35,0.25,2.28,0.35,2.81c-1.83-0.57-3.21-1.54-4.12-2.9c-0.32,0.5-0.41,1.47-0.27,2.91
		c0.17,1.76,1.97,3.16,5.39,4.19l0.03,0.28c0.18,1.9,0.97,2.79,2.37,2.65c1.02-0.22,1.63-0.87,1.81-1.97l0.47-0.04
		c5.62-0.54,9.75-1.87,12.39-3.98c1.35-1.08,2.3-2.32,2.87-3.73c0.14-0.06,0.26-0.16,0.3-0.34C184.4,39.5,182.47,34.06,178.37,30.77
		z M170.87,48.75c-2.02,0.19-3.41,0.18-4.16-0.05c-0.32-1.92-0.67-4.48-1.04-7.63c-0.09-1.01-0.16-2.03-0.19-3.04
		c-0.08-2.22-0.04-4.44,0.11-6.66c0.01-0.1,0.01-0.21,0.02-0.31c3.26,0.17,6.07,1.18,8.42,3.04c2.59,2.06,4.03,4.54,4.31,7.44
		C178.21,45.64,175.72,48.05,170.87,48.75z" />
		<path d="M66.42,32.25c-0.01-0.01-0.02-0.02-0.04-0.03c-1.1-0.74-2.27-1.31-3.48-1.75c-3.82-1.48-8.04-1.84-12.16-1.58
		c-2.1-0.04-4.2-0.06-6.29-0.28c-0.06-0.01-0.13-0.02-0.19-0.02c-1.95-0.37-3.74-0.81-4.47-1.28c-4.56-3,0.44-5.11,5.89-5.42
		c5.13-0.29,23.22,1.97,23.73-2.42c0.11-0.96,0.16-1.68-0.25-2.27c-0.05-0.06-0.12-0.11-0.17-0.17c-0.19-0.62-0.6-1.19-1.24-1.58
		c-1.64-1.03-4.01-1.2-5.88-1.45c-4.2-0.56-8.45-0.43-12.62,0.31c-3.16,0.57-6.25,1.52-9.19,2.81c-1.33,0.51-2.62,1.16-3.89,1.83
		c-0.86,0.45-1.77,0.99-2.48,1.67c-1.61,1.17-2.98,2.61-3.31,4.41c-0.49,1.18-0.43,2.59,0.26,3.8c1.43,2.5,4.68,3.72,7.31,4.41
		c1.05,0.28,2.12,0.47,3.2,0.63c1.25,0.34,2.37,0.59,3.17,0.74c1.5,0.28,3.06,0.44,4.57,0.58c1.76,0.17,7.28,1.87,8.04,2.33
		c6.19,3.77,2.19,8.03,1.83,8.47c-0.7,0.84-1.52,1.58-2.5,2.23c-2.26,1.51-5.09,2.28-8.41,2.28c-0.87,0-1.79-0.05-2.73-0.16
		c-3.54-0.39-7.65-1.8-9.15-2.72c-2.17-1.33-1.88-3.04,2.93-2.66c1.28,0.1,2.63-0.03,4.1-0.09c2.27-0.09,4.7-0.23,7.11-0.6
		l0.44-0.06c1-0.15,2.13-0.31,2.99-0.8l0.08-0.04l0.08-0.02c0.19-0.05,0.39-0.21,0.57-0.49c0.32-0.44,0.41-1.05,0.24-1.68
		c-0.01-0.06-0.03-0.11-0.06-0.19c-0.03-0.08-0.06-0.17-0.11-0.26c-0.1-0.2-0.24-0.35-0.38-0.47c-0.11-0.4-0.36-0.77-0.76-1.03
		c-0.91-0.58-2.18-0.67-3.21-0.83c-1.37-0.22-2.74-0.37-4.12-0.45c-2.68-0.16-5.35-0.03-8.01,0.35c-1.08,0.15-2.15,0.37-3.19,0.68
		c-0.3,0.09-0.6,0.19-0.89,0.3c-0.09,0.03-0.18,0.07-0.27,0.1c-0.6,0.24-1.19,0.51-1.73,0.85c-1.54,0.95-2.24,2.29-2.39,3.75
		c-0.06,0.25-0.1,0.51-0.11,0.78c-0.02,0.12-0.05,0.24-0.05,0.36c-0.07,1.26,0.22,2.32,0.75,3.22c0.04,0.1,0.08,0.19,0.12,0.29
		c1.47,3.16,4.49,5.36,7.47,6.63c1.96,0.83,3.84,1.25,5.84,1.36c1.45,0.19,2.91,0.23,4.34,0.11c3.59,0,7.16-0.71,10.47-2.06
		c0,0,0,0,0,0c0.16-0.03,0.29-0.09,0.39-0.17c2.24-0.95,4.36-2.19,6.29-3.7c2.53-1.98,5.35-4.64,6.24-7.84
		c0.12-0.44,0.19-0.88,0.22-1.32c0.4-1.22,0.3-2.52-0.15-3.74C70.31,35.53,68.53,33.63,66.42,32.25z" />
		<path d="M112.95,50.58c-0.62-0.91-1.35-1.75-2.13-2.53c-1.81-2.34-3.89-4.46-6.22-6.28c-0.27-0.21-0.55-0.41-0.83-0.6
		c0.95-0.17,1.58-0.32,1.89-0.44c3.06-1.06,5-2.37,5.87-3.92c0.93-0.69,1.49-1.83,1.41-3.02c-0.02-0.3-0.1-0.58-0.2-0.84
		c-0.2-1.11-0.77-2.17-1.55-2.96c-1.36-1.39-3.31-2.06-5.2-2.34c-0.02,0-0.03,0-0.05,0c-1.46-0.27-2.94-0.37-4.19-0.47
		c-1.21-0.1-2.44-0.22-3.66-0.24c-1-0.02-1.94,0.22-2.64,0.97c-0.28,0.3-0.5,0.64-0.69,1c-1.12,0.92-1.31,2.4-1.3,3.83
		c-0.07,0.29-0.15,0.57-0.21,0.86c-0.22,1.08-0.34,2.18-0.41,3.28c-0.03,0-0.07,0-0.1,0c-0.26,0-0.71-0.03-1.18-0.03
		c-0.03,0-0.07-0.01-0.1-0.02c-0.05-0.01-0.11,0.01-0.17,0.03c-1.01,0.05-2.03,0.33-1.66,1.44c0.03,0.1,0.08,0.2,0.14,0.29
		c0,0.85,0.96,1.81,1.59,2.18c0.47,0.27,0.98,0.4,1.5,0.46c0.03,0.03,0.06,0.06,0.09,0.08c0.01,0.08,0.01,0.15,0.02,0.23
		c0.02,0.12,0.07,0.21,0.14,0.29c0.18,2.27,0.46,4.12,0.84,5.55c-0.01,0.93-0.01,1.85,0.06,2.78c0.08,1.13,0.1,2.46,0.7,3.46
		c0.41,0.67,1.19,1.17,1.98,1.12c0.47,0.16,0.97,0.23,1.46,0.19c0.51-0.05,1-0.18,1.44-0.44c0.28-0.16,0.56-0.38,0.56-0.74
		c0-0.18-0.07-0.35-0.13-0.51c-0.05-0.16-0.1-0.31-0.15-0.47c-0.23-0.69-0.46-1.39-0.69-2.08c-0.02-0.05-0.04-0.09-0.07-0.13
		c-0.66-2.27-1.08-4.59-1.25-6.94c0.14,0.01,0.28,0.01,0.43,0.04c2.73,1.77,5.25,3.81,7.53,6.13c0.76,0.77,1.48,1.58,2.18,2.4
		c0.34,0.45,0.67,0.91,1.02,1.35c0.46,0.92,1.01,1.78,1.78,2.46c0.73,0.66,1.79,1.37,2.83,1.09c0.13-0.04,0.24-0.1,0.35-0.16
		c0.52-0.09,1.01-0.35,1.34-0.84c0.75-1.1-0.09-2.46-0.71-3.4C114.15,51.92,113.57,51.23,112.95,50.58z M98.09,36.85
		c0.17-1.28,0.4-2.55,0.72-3.8c1.51-0.07,3.27-0.11,5.31-0.11c2.63,0,4.03,0.54,4.24,1.62c-0.67,1-2.53,1.38-3.55,1.59
		c-1.97,0.41-3.97,0.6-5.97,0.69C98.58,36.85,98.34,36.84,98.09,36.85z" />
		<path d="M250.95,49c0.01-1.13-0.07-2.27-0.11-3.4c-0.05-1.42-0.09-2.84-0.14-4.26c0.18-2.68,0.11-5.36-0.18-8.03
		c0-0.01-0.01-0.02-0.01-0.03c-0.08-2.58-0.29-5.17-1.05-7.48c-0.45-1.36-1.51-2.82-3.02-2.44c-0.75,0.19-1.26,0.8-1.8,1.37
		c-0.04,0.04-0.07,0.08-0.11,0.12c-0.11,0.04-0.21,0.09-0.28,0.18c-0.3,0.34-0.57,0.7-0.87,1.05c-0.4,0.43-0.8,0.86-1.2,1.29
		c-0.15,0.16-0.23,0.33-0.27,0.5c-0.98,1.24-1.93,2.51-2.83,3.81c-0.1,0.13-0.21,0.25-0.31,0.38c-1.07,1.35-2.15,2.8-3.1,4.33
		c-0.27-0.09-0.55-0.17-0.83-0.26c-0.42-0.88-1.92-0.48-1.72,0.65c0.15,0.83,0.49,1.59,0.95,2.25c-0.66,1.02-1.3,2.06-1.9,3.13
		c-1.2,2.18-2.37,4.53-3.1,6.99c-0.2,0.43-0.4,0.85-0.59,1.28c-0.64,1.49-1.26,3.06-1,4.71c0,0.03,0.02,0.05,0.03,0.07
		c0.04,1.35,0.83,2.57,2.22,2.95c0.42,0.11,0.93-0.23,1.1-0.65c2.22-5.48,4.81-10.77,7.72-15.86c0.85,0.14,1.72,0.19,2.58,0.15
		c0.99-0.05,1.98-0.17,2.97-0.34c0.25-0.04,0.53-0.09,0.82-0.16c0.12,1.05,0.25,2.09,0.41,3.13c0.07,0.42,0.16,0.83,0.27,1.23
		c0.12,1.14,0.4,2.26,0.88,3.33c0.63,1.41,1.69,2.87,3.44,2.65c0.32-0.04,0.63-0.31,0.72-0.61c0.15-0.47,0.22-0.93,0.24-1.41
		C250.93,49.4,250.95,49.2,250.95,49z M244.34,38.52c-0.98-0.16-1.96-0.35-2.93-0.56c-0.2-0.04-0.39-0.1-0.58-0.15
		c0.58-0.93,1.17-1.86,1.77-2.78c0.06-0.09,0.08-0.18,0.12-0.28c0.03-0.04,0.07-0.08,0.1-0.12c0.42-0.52,0.83-1.05,1.22-1.59
		c0.17,1.84,0.36,3.69,0.57,5.52C244.53,38.55,244.43,38.54,244.34,38.52z" />
		<path d="M268.75,47.02c-0.22,0.11-0.44,0.21-0.66,0.31c-1.42,0.09-2.79,0.49-4.17,0.81c-0.33,0.08-0.66,0.14-1,0.2
		c-0.17,0.03-0.21,0.03-0.09,0.01c-0.1,0.01-0.21,0.02-0.31,0.03c-0.05,0-0.1,0-0.16,0.01c0.02-4.24,0.22-8.48,0.62-12.7
		c0.25-2.61,0.58-5.21,0.98-7.8c0.37-2.38,1.21-4.97,0.52-7.37c-0.32-1.11-1.97-1.38-2.55-0.33c-0.49,0.87-0.94,1.76-1.38,2.65
		c-0.18,0.23-0.32,0.5-0.39,0.79c-0.13,0.27-0.24,0.54-0.36,0.8c-0.25,0.41-0.44,0.87-0.6,1.35c-1.93,4.59-4.38,20.03-4.39,21.36
		c-0.08,1.08-0.13,2.18,0.04,3.23c0.48,3,3.11,4.67,5.98,4.31c3.13-0.39,6.18-2.45,8.53-4.51c0.2-0.17,0.31-0.38,0.38-0.59
		c0.2-0.21,0.33-0.48,0.35-0.77C270.61,47.88,269.89,46.45,268.75,47.02z" />
	</g>
	<g>
		<path d="M91.35,66.28c0.06-0.06,0.12-0.15,0.18-0.27c0.07-0.14,0.15-0.21,0.23-0.21c0.12,0,0.2,0.1,0.22,0.3l0.24,1.87l0.03,0.22
		c0,0.12-0.06,0.18-0.18,0.18c-0.09,0-0.16-0.02-0.2-0.06c-0.04-0.04-0.12-0.18-0.23-0.42c-0.2-0.41-0.52-0.77-0.97-1.09
		c-0.45-0.32-0.9-0.49-1.36-0.49c-0.44,0-0.81,0.13-1.1,0.38s-0.44,0.57-0.44,0.95c0,0.31,0.14,0.58,0.41,0.83s0.8,0.48,1.57,0.7
		c1.22,0.35,2.04,0.77,2.47,1.28c0.43,0.51,0.64,1.07,0.64,1.7c0,0.64-0.16,1.17-0.47,1.6c-0.31,0.43-0.69,0.77-1.12,1.02
		c-0.44,0.25-0.99,0.37-1.68,0.37c-0.39,0-0.79-0.06-1.2-0.17c-0.41-0.11-0.84-0.28-1.28-0.5c-0.09,0.1-0.17,0.24-0.23,0.41
		c-0.07,0.19-0.16,0.28-0.27,0.28c-0.11,0-0.18-0.12-0.2-0.37l-0.2-2.47c-0.01-0.11-0.01-0.18-0.01-0.21c0-0.13,0.07-0.2,0.2-0.2
		c0.1,0,0.2,0.11,0.29,0.34c0.28,0.68,0.65,1.25,1.13,1.7c0.47,0.45,1.02,0.68,1.66,0.68c0.54,0,0.97-0.16,1.3-0.48
		c0.33-0.32,0.49-0.68,0.49-1.08s-0.15-0.75-0.46-1.02c-0.3-0.28-0.85-0.54-1.64-0.8c-0.77-0.25-1.34-0.49-1.71-0.72
		c-0.37-0.23-0.67-0.54-0.9-0.94s-0.34-0.8-0.34-1.21c0-0.71,0.28-1.32,0.83-1.82c0.55-0.5,1.3-0.75,2.25-0.75
		C89.81,65.82,90.5,65.97,91.35,66.28z" />
		<path d="M104.96,65.9c2.36,0.06,4.1,0.1,5.24,0.1c0.86,0,1.8-0.03,2.84-0.08c0.37-0.02,0.67-0.03,0.91-0.03
		c0.09,0,0.24,0,0.46,0.01c0.03,0.19,0.07,0.57,0.12,1.15l0.1,1.08c0,0.18-0.07,0.27-0.22,0.27c-0.11,0-0.22-0.11-0.33-0.33
		c-0.17-0.37-0.39-0.68-0.66-0.95c-0.27-0.26-0.58-0.44-0.94-0.52c-0.36-0.09-0.95-0.13-1.77-0.13c-0.07,0.7-0.11,1.56-0.11,2.61
		c0,1.07,0.02,2.1,0.06,3.09c0.04,0.99,0.09,1.59,0.15,1.79c0.06,0.2,0.16,0.35,0.3,0.45s0.47,0.16,0.99,0.2
		c0.18,0.01,0.27,0.08,0.27,0.19c0,0.13-0.08,0.19-0.23,0.19l-0.19-0.01l-1.41-0.03c-1.1,0-1.77,0-2.01,0.01L107.66,75
		c-0.07,0-0.21,0-0.42-0.01c-0.1-0.02-0.16-0.08-0.16-0.17c0-0.13,0.09-0.2,0.26-0.2c0.4,0,0.71-0.08,0.91-0.25
		c0.2-0.17,0.33-0.43,0.38-0.8c0.05-0.37,0.07-1.16,0.07-2.38c0-1.93-0.06-3.5-0.18-4.71c-0.75,0-1.29,0.03-1.62,0.09
		c-0.33,0.06-0.66,0.23-0.96,0.5c-0.31,0.28-0.56,0.63-0.76,1.07c-0.08,0.17-0.17,0.26-0.27,0.26c-0.15,0-0.23-0.07-0.23-0.2
		c0-0.04,0.03-0.34,0.08-0.9C104.82,66.73,104.89,66.27,104.96,65.9z" />
		<path d="M126.56,65.9l2.19,0.07c0.21,0,0.45-0.01,0.72-0.03c0.43-0.03,0.76-0.05,1.01-0.05c0.23,0,0.35,0.06,0.35,0.19
		c0,0.12-0.09,0.19-0.27,0.2c-0.33,0.02-0.57,0.13-0.73,0.35s-0.26,0.66-0.31,1.33s-0.07,1.41-0.07,2.21c0,1.29,0.06,2.16,0.18,2.6
		c0.12,0.44,0.39,0.8,0.79,1.06c0.4,0.26,0.94,0.4,1.61,0.4c0.68,0,1.19-0.14,1.53-0.43c0.34-0.29,0.58-0.74,0.71-1.36
		c0.13-0.62,0.19-1.76,0.19-3.44c0-0.99-0.08-1.67-0.23-2.05c-0.15-0.38-0.42-0.58-0.79-0.62c-0.27-0.03-0.4-0.11-0.4-0.24
		c0-0.13,0.11-0.2,0.33-0.2c0.1,0,0.28,0.01,0.52,0.04c0.25,0.02,0.52,0.03,0.8,0.03c0.25,0,0.54-0.01,0.85-0.04
		c0.24-0.02,0.4-0.03,0.49-0.03c0.23,0,0.34,0.07,0.34,0.2c0,0.1-0.08,0.17-0.25,0.18c-0.23,0.02-0.43,0.13-0.62,0.32
		c-0.18,0.19-0.3,0.5-0.35,0.93s-0.08,1.55-0.08,3.34c0,1.18-0.12,2.04-0.35,2.56c-0.24,0.53-0.65,0.94-1.24,1.23
		c-0.59,0.29-1.32,0.44-2.2,0.44c-0.68,0-1.26-0.06-1.76-0.18s-0.9-0.31-1.19-0.55c-0.29-0.25-0.5-0.54-0.63-0.86
		c-0.13-0.33-0.19-0.81-0.19-1.44l0.03-3.63c0-0.51-0.03-0.93-0.09-1.25c-0.06-0.33-0.15-0.54-0.27-0.65s-0.31-0.17-0.56-0.2
		c-0.16-0.02-0.26-0.04-0.3-0.07c-0.04-0.03-0.06-0.08-0.06-0.15C126.27,65.97,126.37,65.9,126.56,65.9z" />
		<path d="M153.08,75.11c-0.2,0-1.02-0.01-2.46-0.04l-1.5,0.01l-0.88-0.01c-0.21,0-0.34-0.01-0.39-0.04
		c-0.05-0.02-0.08-0.08-0.08-0.17c0-0.13,0.1-0.2,0.29-0.2c0.37,0,0.65-0.06,0.82-0.19c0.17-0.13,0.28-0.36,0.33-0.7
		s0.09-1.02,0.13-2.04c0.04-1.02,0.06-1.95,0.06-2.81c0-1.2-0.06-1.94-0.17-2.22c-0.12-0.28-0.4-0.42-0.86-0.45
		c-0.16-0.01-0.25-0.08-0.25-0.2c0-0.12,0.07-0.18,0.22-0.18c0.09,0,0.38,0.03,0.88,0.08c0.55,0.05,0.94,0.08,1.16,0.08l2.58-0.05
		c0.86,0,1.69,0.17,2.49,0.49s1.43,0.87,1.9,1.62c0.47,0.75,0.71,1.59,0.71,2.54c0,0.7-0.14,1.35-0.41,1.96
		c-0.28,0.61-0.67,1.12-1.2,1.53c-0.52,0.41-1.04,0.69-1.55,0.82C154.38,75.05,153.78,75.11,153.08,75.11z M152.62,74.61
		c0.95,0,1.71-0.33,2.26-1c0.55-0.67,0.83-1.62,0.83-2.86c0-1.26-0.3-2.3-0.89-3.11c-0.6-0.82-1.45-1.22-2.54-1.22
		c-0.38,0-0.6,0.02-0.68,0.07c-0.07,0.04-0.12,0.09-0.14,0.13c-0.02,0.04-0.04,0.55-0.08,1.53l-0.08,2.31
		c-0.01,0.57-0.02,1.27-0.02,2.11c0,0.63,0.03,1.07,0.08,1.31c0.05,0.24,0.18,0.42,0.36,0.55C151.9,74.55,152.2,74.61,152.62,74.61z
		" />
		<path d="M170.61,65.95c0.16,0,0.49,0.01,0.98,0.04c0.38,0.02,0.68,0.03,0.9,0.03l2.09-0.05c0.18,0,0.27,0.06,0.27,0.18
		c0,0.11-0.08,0.17-0.24,0.19c-0.36,0.04-0.6,0.1-0.72,0.2s-0.21,0.32-0.28,0.68c-0.07,0.35-0.1,1.15-0.1,2.4
		c0,1.43,0.02,2.54,0.07,3.32c0.05,0.78,0.14,1.27,0.28,1.45s0.37,0.28,0.69,0.28c0.22,0,0.33,0.06,0.33,0.18
		c0,0.16-0.12,0.24-0.36,0.24c-0.07,0-0.17,0-0.3-0.01c-0.85-0.06-1.44-0.09-1.75-0.09c-0.69,0-1.19,0.02-1.52,0.06
		c-0.17,0.02-0.29,0.03-0.37,0.03c-0.17,0-0.25-0.07-0.25-0.2c0-0.1,0.07-0.17,0.21-0.18c0.39-0.05,0.65-0.16,0.78-0.32
		c0.13-0.17,0.21-0.56,0.24-1.2c0.03-0.63,0.04-1.61,0.04-2.94c0-1.4-0.03-2.34-0.08-2.82s-0.13-0.77-0.25-0.88
		c-0.12-0.11-0.34-0.18-0.66-0.2c-0.17-0.01-0.26-0.08-0.26-0.21C170.36,66.01,170.44,65.95,170.61,65.95z" />
		<path d="M191.85,65.85c0.92,0,1.72,0.18,2.41,0.55c0.69,0.37,1.24,0.9,1.66,1.6c0.42,0.7,0.62,1.46,0.62,2.28
		c0,1.27-0.47,2.4-1.42,3.38c-0.95,0.98-2.12,1.47-3.53,1.47c-1.28,0-2.37-0.41-3.27-1.22c-0.91-0.81-1.36-1.91-1.36-3.3
		c0-1.31,0.47-2.43,1.41-3.37S190.46,65.85,191.85,65.85z M194.23,70.48c0-1.38-0.23-2.41-0.7-3.11c-0.47-0.7-1.06-1.04-1.78-1.04
		c-0.71,0-1.3,0.35-1.77,1.04s-0.7,1.73-0.7,3.1c0,1.32,0.22,2.34,0.67,3.07s1.05,1.09,1.8,1.09c0.67,0,1.25-0.33,1.74-0.98
		C193.98,72.99,194.23,71.94,194.23,70.48z" />
		<path d="M213.84,66.28c0.06-0.06,0.12-0.15,0.18-0.27c0.07-0.14,0.15-0.21,0.23-0.21c0.12,0,0.2,0.1,0.22,0.3l0.24,1.87l0.03,0.22
		c0,0.12-0.06,0.18-0.18,0.18c-0.09,0-0.16-0.02-0.2-0.06c-0.04-0.04-0.12-0.18-0.23-0.42c-0.2-0.41-0.52-0.77-0.97-1.09
		c-0.45-0.32-0.9-0.49-1.36-0.49c-0.44,0-0.81,0.13-1.1,0.38c-0.29,0.25-0.44,0.57-0.44,0.95c0,0.31,0.14,0.58,0.41,0.83
		s0.8,0.48,1.57,0.7c1.22,0.35,2.04,0.77,2.47,1.28c0.43,0.51,0.64,1.07,0.64,1.7c0,0.64-0.16,1.17-0.47,1.6s-0.69,0.77-1.12,1.02
		c-0.44,0.25-1,0.37-1.68,0.37c-0.39,0-0.79-0.06-1.2-0.17c-0.41-0.11-0.84-0.28-1.28-0.5c-0.09,0.1-0.17,0.24-0.23,0.41
		c-0.07,0.19-0.16,0.28-0.27,0.28c-0.11,0-0.18-0.12-0.2-0.37l-0.2-2.47c-0.01-0.11-0.01-0.18-0.01-0.21c0-0.13,0.07-0.2,0.21-0.2
		c0.1,0,0.19,0.11,0.29,0.34c0.28,0.68,0.65,1.25,1.13,1.7c0.47,0.45,1.02,0.68,1.66,0.68c0.54,0,0.97-0.16,1.3-0.48
		c0.33-0.32,0.49-0.68,0.49-1.08s-0.15-0.75-0.46-1.02c-0.3-0.28-0.85-0.54-1.64-0.8c-0.77-0.25-1.34-0.49-1.71-0.72
		c-0.37-0.23-0.67-0.54-0.9-0.94c-0.23-0.4-0.34-0.8-0.34-1.21c0-0.71,0.28-1.32,0.83-1.82c0.55-0.5,1.3-0.75,2.25-0.75
		C212.31,65.82,212.99,65.97,213.84,66.28z" />
	</g>
</svg>
